<?xml version="1.0" encoding="UTF-8"?>
<svg xmlns="http://www.w3.org/2000/svg" width="10" height="14" viewBox="0 0 10 14">
  <g id="Icon" transform="translate(-165 -6)">
    <path id="_Color" data-name=" ↳Color" d="M5,14H5a31.919,31.919,0,0,1-2.5-3.171C1.36,9.172,0,6.8,0,4.9A4.82,4.82,0,0,1,1.463,1.434a5.077,5.077,0,0,1,7.073,0A4.82,4.82,0,0,1,10,4.9c0,1.9-1.36,4.271-2.5,5.928A31.919,31.919,0,0,1,5,14ZM5,3.15A1.751,1.751,0,1,0,6.786,4.9,1.77,1.77,0,0,0,5,3.15Z" transform="translate(165 6)" fill="#21171b"></path>
  </g>
</svg>
