<svg xmlns="http://www.w3.org/2000/svg" width="98" height="98" viewBox="0 0 98 98"><defs><filter id="Search_box" width="98" height="98" x="0" y="0" filterUnits="userSpaceOnUse"><feOffset dy="3" input="SourceAlpha"/><feGaussianBlur result="blur" stdDeviation="3"/><feFlood flood-color="#21171b" flood-opacity=".161"/><feComposite in2="blur" operator="in"/><feComposite in="SourceGraphic"/></filter></defs><g id="Instagram" transform="translate(9 6)"><g filter="url(#Search_box)" transform="translate(-9 -6)"><path id="Search_box-2" fill="#fff" d="M40 0A40 40 0 1 1 0 40 40 40 0 0 1 40 0Z" data-name="Search box" transform="translate(9 6)"/></g><path id="Instagram-2" fill="#21171b" d="M13.516 45.861a16.878 16.878 0 0 1-5.583-1.069 11.275 11.275 0 0 1-4.074-2.653 11.259 11.259 0 0 1-2.651-4.074 16.862 16.862 0 0 1-1.071-5.583C.026 30.03 0 29.245 0 23s.026-7.03.137-9.484a16.863 16.863 0 0 1 1.071-5.583A11.275 11.275 0 0 1 3.859 3.86a11.321 11.321 0 0 1 4.074-2.654A16.93 16.93 0 0 1 13.516.137C15.849.032 16.674 0 22.123 0h1.754c5.449 0 6.272.032 8.6.137a16.922 16.922 0 0 1 5.583 1.069 11.291 11.291 0 0 1 4.079 2.654 11.257 11.257 0 0 1 2.653 4.074 16.862 16.862 0 0 1 1.069 5.583c.109 2.365.137 3.178.14 8.827v1.311c0 5.649-.03 6.462-.14 8.827a16.861 16.861 0 0 1-1.069 5.583 11.763 11.763 0 0 1-6.727 6.727 16.87 16.87 0 0 1-5.583 1.069C30.03 45.974 29.245 46 23 46s-7.03-.026-9.484-.139Zm.19-41.584a12.784 12.784 0 0 0-4.272.792 7.129 7.129 0 0 0-2.644 1.72 7.125 7.125 0 0 0-1.721 2.646 12.754 12.754 0 0 0-.792 4.27c-.109 2.426-.134 3.154-.134 9.3s.025 6.868.134 9.294a12.767 12.767 0 0 0 .792 4.271 7.137 7.137 0 0 0 1.722 2.644 7.11 7.11 0 0 0 2.644 1.72 12.687 12.687 0 0 0 4.272.792c2.424.111 3.152.134 9.294.134s6.868-.022 9.294-.134a12.683 12.683 0 0 0 4.271-.792 7.613 7.613 0 0 0 4.364-4.364 12.677 12.677 0 0 0 .792-4.271c.111-2.426.134-3.154.134-9.294s-.022-6.87-.134-9.3a12.663 12.663 0 0 0-.792-4.27 7.609 7.609 0 0 0-4.364-4.366 12.78 12.78 0 0 0-4.271-.792c-2.427-.111-3.155-.133-9.295-.133s-6.868.022-9.294.133ZM11.189 23A11.81 11.81 0 1 1 23 34.809 11.811 11.811 0 0 1 11.189 23Zm4.144 0A7.667 7.667 0 1 0 23 15.332 7.667 7.667 0 0 0 15.332 23Zm17.18-12.274a2.76 2.76 0 1 1 2.76 2.761 2.76 2.76 0 0 1-2.761-2.761Z" data-name="Instagram" transform="translate(17 17)"/></g></svg>